<svg width="67" height="59" viewBox="0 0 67 59" fill="none" xmlns="http://www.w3.org/2000/svg">
<path d="M7.32983 14.3562C7.32983 6.80113 13.4544 0.676514 21.0095 0.676514H47.5873C55.1424 0.676514 61.267 6.80113 61.267 14.3562V40.9339C61.267 48.489 55.1424 54.6137 47.5873 54.6137H21.0095C13.4544 54.6137 7.32983 48.489 7.32983 40.9339V14.3562Z" fill="url(#paint0_linear_1_7)"/>
<path d="M20.3619 57.4007C19.2486 58.0467 18.2204 58.2322 17.2774 57.9569C16.3344 57.6817 15.5399 56.9875 14.8938 55.8741L0.739829 31.4838C-0.603313 29.1692 -0.117623 27.3404 2.1969 25.9973L12.8759 19.8001C16.3331 17.7939 19.4837 17.0817 22.3279 17.6636C25.172 18.2454 27.4612 20.0306 29.1954 23.0189C30.5385 25.3334 31.06 27.6156 30.7599 29.8655C30.4721 32.069 29.3911 34.0867 27.5168 35.9185C29.3416 35.4862 31.2706 35.8746 33.3038 37.0837L38.9613 40.5564C40.2226 41.3126 40.9434 42.2847 41.1236 43.4725C41.2868 44.6311 40.6359 45.6354 39.171 46.4855C38.2042 47.0466 37.2942 47.3005 36.4409 47.2474C35.5876 47.1943 34.6947 46.8704 33.7622 46.2758L25.0293 40.9455C24.1138 40.3802 23.2488 40.1381 22.4342 40.2191C21.6196 40.3002 20.7729 40.5957 19.8939 41.1058L16.554 43.044L21.7056 51.9212C22.3516 53.0345 22.5602 54.0688 22.3313 55.0241C22.1317 55.9624 21.4752 56.7546 20.3619 57.4007ZM13.6977 38.122L19.8063 34.5771C23.4685 32.4519 24.4495 29.9244 22.7493 26.9946C21.0662 24.0941 18.3935 23.7065 14.7312 25.8317L8.62267 29.3766L13.6977 38.122Z" fill="white"/>
<path d="M58.5304 35.3685C56.6553 36.4567 54.6613 37.3397 52.5482 38.0176C50.4351 38.6956 48.4605 39.0386 46.6245 39.0466C45.5491 39.0832 44.6964 38.7948 44.0663 38.1814C43.4191 37.5386 43.038 36.7807 42.923 35.9075C42.8079 35.0344 42.9876 34.2643 43.4622 33.5972C43.9367 32.9302 44.7556 32.5529 45.9189 32.4653C47.4818 32.4591 49.0746 32.2006 50.6972 31.6898C52.3198 31.179 53.8343 30.5155 55.2405 29.6994C57.35 28.4753 58.6718 27.2774 59.206 26.1058C59.7525 24.8879 59.7367 23.7809 59.1586 22.7848C58.6656 21.9352 57.9523 21.4483 57.0187 21.3243C56.0851 21.2003 54.7106 21.43 52.8952 22.0136L47.3172 23.8406C41.0998 25.8821 36.665 24.6176 34.0127 20.0471C32.8736 18.0842 32.4064 16.0642 32.611 13.9873C32.7986 11.881 33.5919 9.87367 34.9909 7.96522C36.4193 6.03976 38.3786 4.35446 40.8689 2.90931C42.5095 1.9572 44.2399 1.22719 46.06 0.719262C47.8631 0.182035 49.5863 -0.0542449 51.2296 0.0104215C52.217 0.0248444 53.0027 0.332623 53.5865 0.933757C54.1703 1.53489 54.5028 2.24274 54.5839 3.05731C54.6942 3.85488 54.489 4.58102 53.9681 5.23574C53.4766 5.87346 52.6114 6.23847 51.3726 6.33077C50.1167 6.39376 48.8788 6.6226 47.6587 7.01729C46.4387 7.41197 45.2574 7.94085 44.1148 8.60392C42.269 9.67504 41.0459 10.8743 40.4456 12.2019C39.8575 13.4831 39.895 14.695 40.558 15.8376C41.0511 16.6872 41.7583 17.1972 42.6796 17.3675C43.6008 17.5378 44.9167 17.3421 46.6272 16.7803L52.2053 14.9532C58.6031 12.8853 63.0602 14.0195 65.5764 18.3555C66.6985 20.2892 67.1573 22.2945 66.9527 24.3714C66.7603 26.4021 65.95 28.3801 64.5217 30.3056C63.1057 32.1847 61.1086 33.8724 58.5304 35.3685Z" fill="white"/>
<defs>
<linearGradient id="paint0_linear_1_7" x1="36.2527" y1="15.1379" x2="15.1468" y2="48.7509" gradientUnits="userSpaceOnUse">
<stop stop-color="#8B1EF8"/>
<stop offset="1" stop-color="#D251FF"/>
</linearGradient>
</defs>
</svg>
