<svg width="209" height="71" viewBox="0 0 209 71" fill="none" xmlns="http://www.w3.org/2000/svg">
<path d="M0 16.1364C0 7.2245 7.19788 0 16.0769 0H192.923C201.802 0 209 7.2245 209 16.1364V54.8636C209 63.7755 201.802 71 192.923 71H16.0769C7.19788 71 0 63.7755 0 54.8636V16.1364Z" fill="url(#paint0_linear_1_11)"/>
<path d="M35.7358 35.4355H42.3981V43.3745C41.4377 44.0802 40.4131 44.5923 39.3242 44.9107C38.2438 45.2292 37.112 45.3884 35.9287 45.3884C34.3853 45.3884 32.9791 45.1474 31.7101 44.6655C30.4497 44.1749 29.3693 43.5036 28.469 42.6516C27.5687 41.791 26.8742 40.7755 26.3854 39.6051C25.8967 38.4261 25.6523 37.1481 25.6523 35.7711C25.6523 34.3683 25.8838 33.0817 26.3469 31.9113C26.8099 30.7322 27.4701 29.7167 28.3275 28.8647C29.1936 28.0127 30.2353 27.3501 31.4529 26.8767C32.679 26.4034 34.0466 26.1667 35.5557 26.1667C36.336 26.1667 37.0691 26.2313 37.7551 26.3604C38.441 26.4895 39.0712 26.6659 39.6457 26.8896C40.2287 27.1134 40.7604 27.3802 41.2405 27.69C41.7207 27.9998 42.1494 28.3355 42.5267 28.6969L41.2662 30.6204C41.069 30.9216 40.8118 31.1066 40.4946 31.1755C40.1859 31.2443 39.8515 31.1668 39.4914 30.9431C39.1484 30.7365 38.8226 30.5601 38.5139 30.4138C38.2138 30.2589 37.9051 30.1341 37.5878 30.0395C37.2706 29.9448 36.9362 29.8759 36.5846 29.8329C36.2331 29.7899 35.8387 29.7684 35.4014 29.7684C34.5868 29.7684 33.8537 29.9147 33.2021 30.2073C32.5504 30.4913 31.9931 30.8958 31.5301 31.4207C31.0756 31.9457 30.7241 32.5782 30.4754 33.3184C30.2268 34.0499 30.1024 34.8675 30.1024 35.7711C30.1024 36.7694 30.2396 37.6558 30.514 38.4304C30.7884 39.2049 31.1742 39.859 31.6715 40.3925C32.1774 40.9261 32.7776 41.3349 33.4722 41.6189C34.1753 41.8943 34.9512 42.032 35.8001 42.032C36.3231 42.032 36.7947 41.9804 37.2149 41.8771C37.6436 41.7738 38.0594 41.6361 38.4624 41.464V38.6111H36.6104C36.336 38.6111 36.1216 38.5379 35.9673 38.3916C35.813 38.2453 35.7358 38.0603 35.7358 37.8365V35.4355Z" fill="white"/>
<path d="M54.2898 36.8813C54.2898 36.5628 54.2469 36.253 54.1611 35.9518C54.084 35.6506 53.9511 35.3838 53.7624 35.1515C53.5824 34.9105 53.3423 34.7168 53.0422 34.5705C52.7421 34.4242 52.3777 34.3511 51.949 34.3511C51.1944 34.3511 50.6028 34.5705 50.1741 35.0095C49.7453 35.4398 49.4624 36.0637 49.3252 36.8813H54.2898ZM49.2738 39.2049C49.4024 40.3237 49.7411 41.137 50.2898 41.6447C50.8386 42.1439 51.546 42.3935 52.412 42.3935C52.875 42.3935 53.2737 42.3375 53.6081 42.2256C53.9425 42.1138 54.2383 41.989 54.4955 41.8513C54.7614 41.7136 55.0014 41.5888 55.2158 41.4769C55.4387 41.365 55.6702 41.3091 55.9103 41.3091C56.2276 41.3091 56.4677 41.4253 56.6306 41.6576L57.7881 43.0905C57.3765 43.5639 56.9307 43.9512 56.4505 44.2524C55.9789 44.545 55.4902 44.7773 54.9843 44.9495C54.487 45.113 53.9854 45.2248 53.4795 45.2851C52.9822 45.3539 52.5063 45.3884 52.0519 45.3884C51.1172 45.3884 50.2384 45.2378 49.4152 44.9365C48.6007 44.6267 47.8847 44.1706 47.2674 43.5682C46.6586 42.9658 46.1741 42.217 45.814 41.322C45.4625 40.427 45.2867 39.3856 45.2867 38.198C45.2867 37.303 45.4367 36.4553 45.7368 35.6549C46.0455 34.8545 46.4828 34.1532 47.0487 33.5507C47.6232 32.9483 48.3134 32.4707 49.1194 32.1178C49.934 31.765 50.8514 31.5885 51.8718 31.5885C52.755 31.5885 53.5609 31.7262 54.2898 32.0016C55.0272 32.277 55.6574 32.6772 56.1804 33.2022C56.712 33.7272 57.1236 34.3726 57.4151 35.1385C57.7152 35.8959 57.8653 36.7565 57.8653 37.7204C57.8653 38.0216 57.8524 38.2668 57.8267 38.4562C57.801 38.6455 57.7538 38.7961 57.6852 38.908C57.6166 39.0199 57.5223 39.0973 57.4023 39.1404C57.2908 39.1834 57.145 39.2049 56.965 39.2049H49.2738Z" fill="white"/>
<path d="M65.7424 45.3884C65.1079 45.3884 64.5462 45.298 64.0575 45.1173C63.5773 44.9279 63.17 44.6655 62.8356 44.3298C62.5098 43.9856 62.2612 43.5725 62.0897 43.0905C61.9182 42.6086 61.8325 42.0707 61.8325 41.4769V34.5576H60.7006C60.4949 34.5576 60.3191 34.4931 60.1733 34.364C60.0275 34.2263 59.9547 34.0284 59.9547 33.7702V32.2082L62.0768 31.7951L62.8614 28.5291C62.9643 28.116 63.2558 27.9095 63.736 27.9095H65.8195V31.8209H69.1249V34.5576H65.8195V41.2058C65.8195 41.5156 65.8924 41.7738 66.0382 41.9804C66.1925 42.1783 66.4112 42.2773 66.6941 42.2773C66.8399 42.2773 66.9599 42.2644 67.0542 42.2385C67.1571 42.2041 67.2429 42.1697 67.3115 42.1353C67.3886 42.0922 67.4572 42.0578 67.5173 42.032C67.5858 41.9976 67.663 41.9804 67.7488 41.9804C67.8688 41.9804 67.9631 42.0105 68.0317 42.0707C68.1089 42.1224 68.1861 42.2084 68.2632 42.3289L69.4722 44.2265C68.9577 44.6138 68.379 44.9064 67.7359 45.1044C67.0928 45.2937 66.4283 45.3884 65.7424 45.3884Z" fill="white"/>
<path d="M83.4459 31.7951V45.1818H79.4588V31.7951H83.4459ZM83.8574 28.1289C83.8574 28.4473 83.7931 28.7485 83.6645 29.0325C83.5359 29.3079 83.3601 29.5532 83.1372 29.7684C82.9143 29.9749 82.6527 30.1427 82.3526 30.2718C82.0611 30.3923 81.7481 30.4525 81.4137 30.4525C81.0879 30.4525 80.7835 30.3923 80.5006 30.2718C80.2176 30.1427 79.9647 29.9749 79.7417 29.7684C79.5274 29.5532 79.3559 29.3079 79.2273 29.0325C79.1072 28.7485 79.0472 28.4473 79.0472 28.1289C79.0472 27.8019 79.1072 27.4964 79.2273 27.2124C79.3559 26.9284 79.5274 26.6788 79.7417 26.4636C79.9647 26.2485 80.2176 26.0807 80.5006 25.9602C80.7835 25.8397 81.0879 25.7795 81.4137 25.7795C81.7481 25.7795 82.0611 25.8397 82.3526 25.9602C82.6527 26.0807 82.9143 26.2485 83.1372 26.4636C83.3601 26.6788 83.5359 26.9284 83.6645 27.2124C83.7931 27.4964 83.8574 27.8019 83.8574 28.1289Z" fill="white"/>
<path d="M91.1911 33.2409C91.4483 32.9999 91.7142 32.7762 91.9885 32.5696C92.2629 32.3631 92.5544 32.191 92.8631 32.0533C93.1804 31.907 93.5191 31.7951 93.8792 31.7176C94.2479 31.6316 94.6466 31.5885 95.0753 31.5885C95.8041 31.5885 96.4472 31.7176 97.0045 31.9758C97.5704 32.2254 98.0463 32.5782 98.4322 33.0344C98.818 33.4819 99.1096 34.0198 99.3068 34.648C99.504 35.2676 99.6026 35.9432 99.6026 36.6747V45.1818H95.6155V36.6747C95.6155 36.0207 95.4654 35.5129 95.1653 35.1515C94.8652 34.7814 94.4237 34.5964 93.8406 34.5964C93.4033 34.5964 92.9917 34.691 92.6059 34.8804C92.2286 35.0611 91.8599 35.3107 91.4998 35.6291V45.1818H87.5127V31.7951H89.9821C90.4795 31.7951 90.8053 32.0188 90.9596 32.4664L91.1911 33.2409Z" fill="white"/>
<path d="M123.859 29.8329H118.586V45.1818H114.239V29.8329H108.965V26.3733H123.859V29.8329Z" fill="white"/>
<path d="M129.999 31.5885C131.011 31.5885 131.933 31.7478 132.765 32.0662C133.596 32.3846 134.308 32.8407 134.9 33.4345C135.5 34.0284 135.963 34.7513 136.289 35.6033C136.623 36.4467 136.79 37.3976 136.79 38.4562C136.79 39.5233 136.623 40.4872 136.289 41.3478C135.963 42.1998 135.5 42.927 134.9 43.5295C134.308 44.1233 133.596 44.5837 132.765 44.9107C131.933 45.2292 131.011 45.3884 129.999 45.3884C128.979 45.3884 128.049 45.2292 127.208 44.9107C126.377 44.5837 125.657 44.1233 125.048 43.5295C124.448 42.927 123.98 42.1998 123.646 41.3478C123.32 40.4872 123.157 39.5233 123.157 38.4562C123.157 37.3976 123.32 36.4467 123.646 35.6033C123.98 34.7513 124.448 34.0284 125.048 33.4345C125.657 32.8407 126.377 32.3846 127.208 32.0662C128.049 31.7478 128.979 31.5885 129.999 31.5885ZM129.999 42.4193C130.917 42.4193 131.59 42.0965 132.019 41.4511C132.456 40.797 132.675 39.8073 132.675 38.482C132.675 37.1567 132.456 36.1713 132.019 35.5258C131.59 34.8804 130.917 34.5576 129.999 34.5576C129.056 34.5576 128.366 34.8804 127.929 35.5258C127.491 36.1713 127.273 37.1567 127.273 38.482C127.273 39.8073 127.491 40.797 127.929 41.4511C128.366 42.0965 129.056 42.4193 129.999 42.4193Z" fill="white"/>
<path d="M152.045 31.7951V45.1818H149.576C149.079 45.1818 148.753 44.9581 148.599 44.5105L148.367 43.736C148.11 43.9856 147.844 44.2136 147.57 44.4202C147.295 44.6181 146.999 44.7902 146.682 44.9365C146.374 45.0742 146.035 45.1818 145.666 45.2593C145.306 45.3453 144.912 45.3884 144.483 45.3884C143.754 45.3884 143.107 45.2636 142.541 45.014C141.983 44.7558 141.512 44.3987 141.126 43.9425C140.74 43.4864 140.449 42.9485 140.251 42.3289C140.054 41.7093 139.956 41.0294 139.956 40.2893V31.7951H143.943V40.2893C143.943 40.9519 144.093 41.464 144.393 41.8255C144.693 42.1869 145.135 42.3676 145.718 42.3676C146.155 42.3676 146.562 42.2773 146.939 42.0965C147.325 41.9072 147.698 41.6533 148.058 41.3349V31.7951H152.045Z" fill="white"/>
<path d="M165.841 34.9707C165.721 35.117 165.605 35.2332 165.494 35.3193C165.382 35.4053 165.224 35.4484 165.018 35.4484C164.821 35.4484 164.641 35.401 164.478 35.3064C164.323 35.2117 164.148 35.1084 163.95 34.9965C163.753 34.8761 163.522 34.7685 163.256 34.6738C162.99 34.5792 162.66 34.5318 162.266 34.5318C161.777 34.5318 161.352 34.6222 160.992 34.8029C160.641 34.9836 160.349 35.2418 160.118 35.5775C159.886 35.9131 159.715 36.3262 159.603 36.8167C159.492 37.2987 159.436 37.8452 159.436 38.4562C159.436 39.7385 159.68 40.7239 160.169 41.4124C160.666 42.1008 161.348 42.4451 162.214 42.4451C162.677 42.4451 163.042 42.3892 163.307 42.2773C163.582 42.1568 163.813 42.0277 164.002 41.89C164.191 41.7437 164.362 41.6103 164.516 41.4898C164.679 41.3693 164.881 41.3091 165.121 41.3091C165.438 41.3091 165.678 41.4253 165.841 41.6576L166.999 43.0905C166.587 43.5639 166.154 43.9512 165.7 44.2524C165.245 44.545 164.778 44.7773 164.298 44.9495C163.826 45.113 163.35 45.2248 162.87 45.2851C162.39 45.3539 161.923 45.3884 161.468 45.3884C160.654 45.3884 159.873 45.2335 159.127 44.9236C158.39 44.6138 157.738 44.1663 157.172 43.5811C156.615 42.9873 156.169 42.2601 155.835 41.3995C155.509 40.5388 155.346 39.5578 155.346 38.4562C155.346 37.4923 155.488 36.593 155.771 35.7582C156.062 34.9148 156.486 34.1876 157.044 33.5765C157.61 32.9569 158.304 32.4707 159.127 32.1178C159.959 31.765 160.919 31.5885 162.008 31.5885C163.054 31.5885 163.972 31.7564 164.761 32.092C165.55 32.4276 166.261 32.9182 166.896 33.5636L165.841 34.9707Z" fill="white"/>
<path d="M173.824 32.9698C174.304 32.5567 174.823 32.2254 175.38 31.9758C175.946 31.7176 176.619 31.5885 177.399 31.5885C178.128 31.5885 178.771 31.7176 179.328 31.9758C179.894 32.2254 180.37 32.5782 180.756 33.0344C181.142 33.4819 181.433 34.0198 181.631 34.648C181.828 35.2676 181.926 35.9432 181.926 36.6747V45.1818H177.939V36.6747C177.939 36.0207 177.789 35.5129 177.489 35.1515C177.189 34.7814 176.748 34.5964 176.165 34.5964C175.727 34.5964 175.316 34.691 174.93 34.8804C174.553 35.0611 174.184 35.3107 173.824 35.6291V45.1818H169.837V25.8569H173.824V32.9698Z" fill="white"/>
<defs>
<linearGradient id="paint0_linear_1_11" x1="112.072" y1="19.0362" x2="99.4859" y2="78.0427" gradientUnits="userSpaceOnUse">
<stop stop-color="#8B1EF8"/>
<stop offset="1" stop-color="#D251FF"/>
</linearGradient>
</defs>
</svg>
